<?xml version="1.0" encoding="utf-8"?>
<!-- Generator: Adobe Illustrator 22.0.1, SVG Export Plug-In . SVG Version: 6.00 Build 0)  -->
<svg version="1.1" id="Ebene_1" xmlns="http://www.w3.org/2000/svg" xmlns:xlink="http://www.w3.org/1999/xlink" x="0px" y="0px"
	 viewBox="0 0 88 15.3" style="enable-background:new 0 0 88 15.3;" xml:space="preserve" fill="white">
<style type="text/css">
	.st0{fill:#F7A833;}
	.st1{fill:#307ABE;}
	.st2{fill:#44B284;}
	.st3{fill:#64C1C7;}
</style>
<g>
	<path class="st0" d="M0.1,9.5h10.2V0.1C4.9,0.1,0.5,4.2,0.1,9.5"/>
</g>
<path class="st1" d="M11.2,15.2c3,0,5.4-2.4,5.4-5.4c0-3-2.4-5.4-5.4-5.4V15.2z"/>
<path class="st2" d="M10.3,12.8c0,1.3-1.1,2.4-2.4,2.4s-2.4-1.1-2.4-2.4s1.1-2.4,2.4-2.4S10.3,11.5,10.3,12.8"/>
<path d="M42.9,5.8c-1.5,0-2.5,0.8-2.5,0.8l-0.1,0.1L41,7.9l0.1-0.1c0,0,0.8-0.6,1.7-0.6c0.9,0,1.3,0.4,1.3,1.3H44
	c-2.7,0-4.1,0.8-4.1,2.4c0,1.4,1.2,2.1,2.3,2.1c1,0,1.7-0.6,2-1c0,0,0,0,0,0.1v0.7h1.4V8.5C45.7,6.8,44.7,5.8,42.9,5.8z M44.2,9.7
	c0,1.2-0.8,2-1.6,2c-0.8,0-1.1-0.5-1.1-0.9c0-1,1.4-1.1,2.5-1.1L44.2,9.7L44.2,9.7z"/>
<path d="M36.6,5.8c-1,0-1.9,0.6-2.3,1.3c-0.3-0.9-1-1.3-2-1.3c-0.9,0-1.7,0.5-2.1,1.1V6h-1.5v6.8h1.5V9.7c0-0.3,0-0.6,0.1-0.8
	c0.3-1,0.9-1.6,1.7-1.6c0.8,0,1,0.6,1,1.5v4h1.5V9.7c0-0.3,0-0.6,0.1-0.9c0.2-0.8,0.8-1.6,1.7-1.6c0.9,0,1,0.6,1,1.5v4h1.5V8.5
	C38.8,6.7,38.1,5.8,36.6,5.8z"/>
<path d="M82.3,5.8c-2,0-3.4,1.5-3.4,3.5c0,2.1,1.5,3.5,3.6,3.5c1.6,0,2.6-0.9,2.6-1l0.1-0.1l-0.6-1.1l-0.1,0.1c0,0-0.8,0.7-1.8,0.7
	c-0.9,0-2-0.5-2.1-1.9h4.7l0-0.1c0-0.1,0-0.4,0-0.6C85.3,7.1,84.1,5.8,82.3,5.8z M80.5,8.5c0.2-0.9,0.9-1.4,1.8-1.4
	c0.6,0,1.4,0.4,1.4,1.4H80.5z"/>
<path d="M70.3,5.8c-2.1,0-3.7,1.5-3.7,3.5c0,2,1.6,3.6,3.7,3.6c2.1,0,3.7-1.5,3.7-3.6C73.9,7.4,72.4,5.8,70.3,5.8z M70.3,11.6
	c-1.2,0-2.1-1-2.1-2.2c0-1.2,0.9-2.2,2.1-2.2c1.2,0,2.1,0.9,2.1,2.2C72.4,10.7,71.5,11.6,70.3,11.6z"/>
<path d="M64.4,4.3l-1.5,0V6H62v1.3h0.9v3c0,1,0.3,2.6,2.6,2.6c0.3,0,0.4,0,0.4,0v-1.4l0,0c0,0-0.1,0-0.3,0c-0.6,0-1.3-0.2-1.3-1.3
	V7.3h1.6V6h-1.6V4.3z"/>
<path d="M55,11.5c-0.6,0-1.3-0.2-1.3-1.3V7.3h1.6V6h-1.6V4.2l-1.5,0V6h-0.9v1.3h0.9v3c0,1,0.3,2.6,2.6,2.6c0.3,0,0.5,0,0.5,0l0,0
	v-1.4l-0.1,0C55.2,11.5,55.1,11.5,55,11.5z"/>
<path d="M59.2,8.8C58.6,8.5,58,8.3,58,7.9c0-0.5,0.5-0.7,0.9-0.7c1,0,1.5,0.5,1.5,0.5l0.1,0.1l0.6-1.2l-0.1-0.1c0,0-0.7-0.8-2.2-0.8
	c-1.5,0-2.5,0.8-2.5,2c0,1.3,1.1,1.8,2.1,2.2c0.7,0.3,1.2,0.5,1.2,0.9c0,0.4-0.5,0.7-1,0.7c-1.1,0-1.8-0.7-1.8-0.7L57,10.8l-0.8,1.1
	l0.1,0.1c0,0,0.9,1,2.6,1c1.5,0,2.5-0.8,2.5-2C61.4,9.6,60.2,9.1,59.2,8.8z"/>
<path d="M48.6,7.1V6h-1.5v6.8h1.5V10c0-0.4,0-0.8,0.1-1.1C49,8,49.7,7.4,50.5,7.4h0h0.1V5.9l-0.1,0C49.7,5.9,49,6.4,48.6,7.1z"/>
<path d="M76.4,7.1V6h-1.5v6.8h1.5V10c0-0.4,0-0.8,0.1-1.1c0.3-0.9,0.9-1.4,1.7-1.4h0h0.1V5.9l-0.1,0C77.5,5.9,76.8,6.4,76.4,7.1z"/>
<path d="M24.7,7.5c-1-0.4-1.8-0.8-1.8-1.5c0-0.7,0.7-1.2,1.5-1.2c1,0,1.8,0.6,2.1,0.8l0.7-1.2C27,4,26.1,3.3,24.5,3.3
	c-1.8,0-3.1,1.2-3.1,2.7c0,1.6,1.4,2.2,2.6,2.7c1,0.4,1.9,0.8,1.9,1.6c0,0.9-0.7,1.3-1.5,1.3c-1.2,0-2.1-0.7-2.4-1l-0.8,1.1
	c0.3,0.2,1.4,1.2,3.2,1.2c1.8,0,3.1-1.1,3.1-2.7C27.4,8.6,26,8,24.7,7.5z"/>
<path class="st3" d="M11.2,0.1c1.9,0,3.4,1.5,3.4,3.3h-3.4V0.1z"/>
</svg>
