<?xml version="1.0" encoding="utf-8"?>
<!-- Generator: Adobe Illustrator 22.1.0, SVG Export Plug-In . SVG Version: 6.00 Build 0)  -->
<svg version="1.1" id="Ebene_1" xmlns="http://www.w3.org/2000/svg" xmlns:xlink="http://www.w3.org/1999/xlink" x="0px" y="0px"
	 viewBox="0 0 250 44.8" style="enable-background:new 0 0 250 44.8;" xml:space="preserve">
<style type="text/css">
	.st0{fill:#F7A833;}
	.st1{fill:#307ABE;}
	.st2{fill:#44B284;}
	.st3{fill:#64C1C7;}
	.st4{fill:#FFFFFF;}
</style>
<g>
	<path class="st0" d="M0.6,27.9h29.8V0.4C14.6,0.4,1.7,12.4,0.6,27.9"/>
</g>
<path class="st1" d="M33,44.5c8.8,0,15.8-7,15.8-15.8S41.7,13,33,13V44.5z"/>
<path class="st2" d="M30.3,37.5c0,3.8-3.2,7-7,7s-7-3.2-7-7s3.2-7,7-7S30.3,33.7,30.3,37.5"/>
<path class="st3" d="M33,0.4c5.5,0,9.9,4.4,9.9,9.6H33C33,10.1,33,0.4,33,0.4z"/>
<path class="st4" d="M125.7,17.2c-4.4,0-7.3,2.3-7.4,2.3l-0.2,0.2L120,23l0.3-0.3c0,0,2.3-1.8,5.1-1.8c2.6,0,3.8,1.2,3.8,3.8h-0.5
	c-7.9,0-11.9,2.3-11.9,6.9c0,4.1,3.4,6.2,6.9,6.2c3.1,0,4.8-1.6,5.7-2.8c0,0.1,0,0.1,0,0.2v2.2h4.1V25.1
	C133.6,20,130.8,17.2,125.7,17.2z M129.3,28.6c0,3.4-2.4,5.7-4.7,5.7c-2.2,0-3.2-1.4-3.2-2.7c0-2.9,4.2-3.2,7.4-3.2h0.6v0.2
	C129.4,28.6,129.3,28.6,129.3,28.6z"/>
<path class="st4" d="M107.1,17.2c-3.1,0-5.5,1.8-6.7,3.8c-0.9-2.5-2.8-3.8-5.9-3.8c-2.7,0-5,1.6-6.2,3.3v-2.9H84v19.8h4.4v-9.1
	c0-0.8,0-1.6,0.2-2.4c0.8-2.9,2.8-4.7,5.1-4.7c2.5,0,2.9,1.7,2.9,4.4v11.8h4.4v-9.1c0-1,0.1-1.8,0.3-2.5c0.6-2.3,2.4-4.6,5-4.6
	c2.5,0,3,1.8,3,4.4v11.8h4.4V24.9C113.7,19.8,111.5,17.2,107.1,17.2z"/>
<path class="st4" d="M240.7,17.2c-5.8,0-9.9,4.3-9.9,10.4c0,6,4.4,10.4,10.5,10.4c4.6,0,7.5-2.7,7.6-2.8l0.2-0.2l-1.9-3.3l-0.3,0.3
	c0,0-2.3,2.1-5.4,2.1c-2.6,0-5.8-1.5-6.2-5.5h13.8v-0.3c0-0.3,0.1-1.2,0.1-1.6C249.3,20.9,245.9,17.2,240.7,17.2z M235.5,25
	c0.6-2.5,2.5-4.1,5.1-4.1c1.9,0,3.9,1.1,4.2,4.1H235.5z"/>
<path class="st4" d="M205.5,17.2c-6.1,0-10.7,4.4-10.7,10.3s4.6,10.4,10.7,10.4c6.1,0,10.7-4.5,10.7-10.4
	C216.2,21.7,211.6,17.2,205.5,17.2z M205.5,34.1c-3.5,0-6.2-2.8-6.2-6.5c0-3.6,2.7-6.4,6.2-6.4s6.2,2.8,6.2,6.4
	C211.7,31.3,209,34.1,205.5,34.1z"/>
<path class="st4" d="M188.2,12.7l-4.3-0.1v5.1h-2.6v3.7h2.5v8.8c0,2.8,1,7.5,7.7,7.5c0.7,0,1.2-0.1,1.3-0.1v-4h-0.1
	c0,0-0.3,0.1-0.8,0.1c-1.7,0-3.7-0.7-3.7-3.9v-8.4h4.6v-3.7h-4.6L188.2,12.7L188.2,12.7z"/>
<path class="st4" d="M160.8,33.7c-1.7,0-3.7-0.7-3.7-3.9v-8.4h4.6v-3.7h-4.6v-5.1h-4.3v5.1h-2.6v3.7h2.5v8.8c0,2.8,1,7.5,7.7,7.5
	c0.8,0,1.3-0.1,1.3-0.1l0,0v-4h-0.2C161.6,33.6,161.3,33.7,160.8,33.7z"/>
<path class="st4" d="M173.3,25.7c-1.9-0.8-3.6-1.4-3.6-2.6c0-1.4,1.4-2,2.8-2c2.8,0,4.4,1.6,4.4,1.6l0.4,0.4l1.8-3.4l-0.2-0.2
	c-0.1-0.1-2.1-2.2-6.4-2.2c-4.3,0-7.3,2.3-7.3,5.8c0,3.8,3.3,5.1,6.2,6.3c1.9,0.8,3.6,1.5,3.6,2.7c0,1.3-1.4,2-2.8,2
	c-3.1,0-5.2-2.1-5.2-2.1l-0.3-0.3l-2.2,3.2l0.2,0.2c0,0,2.7,2.9,7.5,2.9c4.3,0,7.3-2.4,7.3-5.9C179.5,28.2,176,26.8,173.3,25.7z"/>
<path class="st4" d="M142.1,21v-3.3h-4.3v19.8h4.4v-8.2c0-1.3,0.1-2.4,0.4-3.3c0.8-2.6,2.7-4.2,5-4.2l0,0h0.2v-4.3h-0.3
	C145.4,17.5,143.3,18.8,142.1,21z"/>
<path class="st4" d="M223.4,21v-3.3h-4.3v19.8h4.4v-8.2c0-1.3,0.1-2.4,0.4-3.3c0.8-2.6,2.7-4.2,5-4.2l0,0h0.2v-4.3h-0.3
	C226.7,17.5,224.6,18.8,223.4,21z"/>
<path class="st4" d="M72.6,21.9c-2.9-1.2-5.3-2.2-5.3-4.5c0-2.1,1.9-3.6,4.5-3.6c2.9,0,5.3,1.6,6.1,2.3l1.9-3.6
	c-0.6-0.6-3.4-2.8-8-2.8c-5.2,0-9.1,3.4-9.1,7.8c0,4.7,4.1,6.4,7.7,8c2.8,1.2,5.4,2.3,5.4,4.7c0,2.5-2.2,3.7-4.3,3.7
	c-3.4,0-6.1-2.1-6.9-2.8l-2.4,3.4c0.7,0.7,4,3.6,9.3,3.6c5.2,0,8.9-3.2,8.9-7.9C80.4,25.2,76.2,23.5,72.6,21.9z"/>
</svg>
